<?xml version="1.0" encoding="utf-8"?>
<!-- Generator: Adobe Illustrator 21.0.0, SVG Export Plug-In . SVG Version: 6.00 Build 0)  -->
<svg version="1.1" id="Шар_1" xmlns="http://www.w3.org/2000/svg" xmlns:xlink="http://www.w3.org/1999/xlink" x="0px" y="0px"
	 viewBox="0 0 1700 839" style="enable-background:new 0 0 1700 839;" xml:space="preserve">
<style type="text/css">
	.st0{clip-path:url(#SVGID_2_);}
	.st1{fill:#ffffff;}
</style>
<g>
	<defs>
		<rect id="SVGID_1_" x="0" width="1700" height="839.1"/>
	</defs>
	<clipPath id="SVGID_2_">
		<use xlink:href="#SVGID_1_"  style="overflow:visible;"/>
	</clipPath>
	<g class="st0">
		<g>
			<path class="st1" d="M1536,170.6c16.2,3,26.9,18.5,23.9,34.7c-0.4,2.1-1,4-1.7,5.9l34.3,6.4c-0.5-3.6-0.5-7.4,0.2-11.2
				c3.5-18.9,21.6-31.3,40.5-27.8c6.2,1.1,11.6,3.9,16.1,7.6c0,0,9.8,8.3,11.5,21.6l2.9,0.5c0,0-0.2-13-13.7-26.1l0.4-2l7.8-42.1
				l-58.2-10.8l-13.1,41.1l-31.7-5.9l3.1-16.5l-1.5-0.3l1.3-6.9l-0.1,0l-1-0.2l-2.3-0.4l-0.2,1.1l2.3,0.4l-1.1,5.8l-1.5-0.3
				l-3.1,16.5l-20.9-3.9l-2.9,12.4C1530.1,169.9,1533,170,1536,170.6z M1652.8,141.7l-6.1,33l-23.3-4.3l6.2-33L1652.8,141.7z
				 M1603.1,132.5l21.8,4l-7.9,32.7l-24.2-4.5L1603.1,132.5z"/>
			
				<ellipse transform="matrix(5.721052e-02 -0.9984 0.9984 5.721052e-02 1130.9152 1330.1361)" class="st1" cx="1269.7" cy="66.3" rx="8.2" ry="8.2"/>
			<path class="st1" d="M1295.5,93.6c3.3,0,10.5-10.5,9.1-13.4c-1.4-2.9-23.1-10.9-23.1-10.9l-3.8,5.6
				C1277.7,74.8,1292.1,93.6,1295.5,93.6z"/>
			<path class="st1" d="M1281.6,63.7c0,0,23.2-4.6,24.7-7.6c1.5-3-4.8-14.1-8-14.1c-3.2,0-20.1,15.9-20.1,15.9L1281.6,63.7z"/>
			<path class="st1" d="M1240.7,90.5c3.3,0.4,19.9-16.6,19.9-16.6l-3.1-6c0,0-22.5,5.4-24.2,8.2
				C1231.5,78.8,1237.4,90.2,1240.7,90.5z"/>
			<path class="st1" d="M1257.9,62.4l4-5.4c0,0-14.9-17.7-18.1-18.1c-3.2-0.3-10.7,10-9.5,13.1C1235.3,55.1,1257.9,62.4,1257.9,62.4
				z"/>
			<path class="st1" d="M1272.9,55.1c0,0,8.7-22,7-24.9c-1.7-2.9-14.4-3.6-16.2-0.9c-1.8,2.7,2.5,25.5,2.5,25.5L1272.9,55.1z"/>
			<path class="st1" d="M-401.5,485.9c0,195.4,557,353.8,1244,353.8s1244-158.4,1244-353.8"/>
			<path class="st1" d="M2094,518c0-111-179.9-210.1-461.3-275c12.1-2.3,22.2-11.9,24.6-24.7c3.1-16.8-8-32.9-24.8-36.1
				c-16.8-3.1-32.9,8-36.1,24.8c-2.2,12.1,2.9,23.8,12.1,30.6c-22.1-4.8-44.7-9.5-67.9-13.9c7.7-3.3,13.7-10.3,15.4-19.2
				c2.6-14.1-6.7-27.7-20.8-30.3c-14.1-2.6-27.7,6.7-30.3,20.8c-1.7,8.9,1.5,17.6,7.5,23.4c-17.3-3.1-34.8-6.1-52.6-8.9l0.4-38.7
				l17.8-19.6c1.6,0.5,3.3,0.9,5,1.2c20.6,3.4,40.2-10.6,43.6-31.2c1.6-9.5-0.5-19.1-5.8-27.1c-1-1.5-2.1-3-3.3-4.3
				c1-1.6,1.7-3.5,2-5.5c1.4-8.6-4.4-16.7-13-18.1c-0.5-0.1-1-0.1-1.5-0.2c1.6-19.5-12-37.3-31.6-40.5c-13.2-2.2-26,2.8-34.4,12.1
				c-1.4-0.5-2.8-0.9-4.3-1.1c-14.5-2.4-28.3,7.5-30.7,22c-1,5.9,0.1,11.7,2.6,16.6c0,0-0.1,0.1-0.1,0.1
				c-7.6,5.9-12.6,14.3-14.2,23.8c-3.4,20.6,10.6,40.2,31.2,43.6c1.9,0.3,3.9,0.5,5.8,0.5l10.3,23.6l-12.4,37.8
				c-17.6-2.6-35.4-5.1-53.5-7.5c0.3-2,0.9-4,1.1-4.8c0.4-1.6,1.3-6.7,1.3-6.7s1.7,0.5,4.8,0.1c3.1-0.4,4.4-0.2,6.1,0.3
				c1.7,0.5,8,0.5,10.1-1.1c0,0,2.1,0.2,3.1-2.3s-0.4-3.6-1.1-2.8c0,0-2.8-1.6-3.2-3c-0.4-1.4-1.1-2.8-2.3-4c-1.2-1.3-3.7-4-3.7-4
				s0.1-1.9,1.1-3c0.9-1,0.6-2.5,0.3-2.9c-0.3-0.4-0.8,1-1.7,1.4c-0.9,0.4-2.7,0.8-3.3,2c0,0-16.9-4.8-22.3-6.1
				c-5.4-1.3-14.7-4.6-22.1-4.1c-5.7,0.4-9.5,1.9-12.1,4.3c-0.4,0-0.8-0.1-1.3-0.4c-0.3-0.2-0.6-0.4-0.8-0.8l0-0.1l0,0l0,0l0,0
				c0,0,0,0,0,0l0,0c0,0-0.1-0.1-0.1-0.2c0-0.1-0.1-0.2-0.1-0.3c-0.1-0.2-0.1-0.4-0.2-0.6c-0.1-0.4,0-0.9,0.2-1.3
				c0.2-0.4,0.5-0.8,0.9-1c0.2-0.1,0.4-0.2,0.7-0.2l0.1,0l0.1,0c0,0,0.1,0,0.2,0c0.1,0,0.2,0,0.3,0c0.5,0,0.9,0.3,1.1,0.6
				c0.3,0.3,0.4,0.7,0.3,1.1c0,0.2-0.1,0.4-0.2,0.6c-0.1,0.2-0.2,0.3-0.4,0.4c-0.3,0.2-0.6,0.2-0.8,0.1c-0.3-0.1-0.4-0.3-0.5-0.4
				c-0.1-0.2-0.2-0.4-0.2-0.5c0-0.1-0.1-0.1-0.1-0.1c0,0,0,0,0,0l0,0c0-0.1,0-0.2-0.1-0.3c-0.1,0-0.2,0.1-0.3,0.2c0,0,0,0,0,0.1
				c0,0,0,0.1,0,0.2c0,0.2,0,0.4,0.1,0.7c0.1,0.3,0.4,0.6,0.8,0.8c0.4,0.2,1,0.2,1.5-0.1c0.2-0.1,0.4-0.3,0.6-0.6
				c0.2-0.2,0.3-0.5,0.4-0.8c0.2-0.6,0.1-1.3-0.3-1.9c-0.4-0.6-1-1-1.7-1.1c-0.2,0-0.4-0.1-0.5-0.1c-0.1,0-0.2,0-0.3,0l-0.1,0
				l-0.1,0c-0.4,0-0.7,0.1-1,0.3c-0.7,0.3-1.2,0.8-1.6,1.4c-0.4,0.6-0.5,1.3-0.5,2c0,0.3,0.1,0.7,0.2,1c0.1,0.2,0.1,0.3,0.2,0.5
				c0,0.1,0.1,0.1,0.1,0.2l0,0l0,0.1l0.1,0.1c0.3,0.5,0.7,1,1.2,1.3c0.3,0.2,0.6,0.4,0.9,0.5c-0.2,0.3-0.4,0.5-0.6,0.8
				c-2.5,3.7-2.5,8.5-1.2,11.1c1.2,2.6,0.2,4.5-1.6,5.9c-1.8,1.5-1.5,2.5-1.4,4.9c0.1,2.3,0.3,3.2-0.7,4.5c-0.4,0.5-0.6,1-0.8,1.5
				c-10.2-1.2-20.5-2.4-30.9-3.5l2.3-40.3l-7.9-0.5L1275,99.2c-0.2-7.2-2.9-21.9-2.9-21.9l-6.7-0.4c0,0-5.1,12.9-6.7,20.2
				l-16.2,46.7l-8.7-0.5l-2,34.9l-13.9-0.8l4.1-70.9l19.6,1.1l-82.2-82.1l-91.1,72.2l19.7,1.1l-4.1,70.9l-7.1-0.4l3.7-63.7
				l-31.3-1.8l54.2-42.9l0.7-11.7c1.1-19.7-12.7-36.6-30.7-37.6c-18-1-33.7,14.2-34.8,33.9l-5.7,98.8c-2.9-2.3-6.5-3.8-10.4-4
				c-2.8-6.5-9.3-11-16.9-11c-8.9,0-16.3,6.3-18,14.6c-0.8-0.1-1.6-0.3-2.4-0.3c-7.1,0-13,5-14.6,11.6c-4.1,2-7.1,5.8-8,10.3
				c-18.8-0.5-37.8-0.8-56.9-1.1c0.1,0,0.2-0.1,0.3-0.1c1.1-0.5,2.2-1.3,2.2-1.3s-1.5-3.4,0.4-5.8c0,0,3.6,0.4,6,0.4
				s3.7,0.7,5.1,0.5c1.3-0.2,2.7-1,2.7-1s4.4,1.4,5.9,0.8s1.7-0.9,0.4-2.8c0,0,0.5-0.7,0.1-1.5c-0.4-0.8-4.3-2.8-5.1-3.7
				s-4-3.6-5.7-4.6c-1.6-1-6-4.5-8-4.9s-6.9-1.1-7.4-1.8s-0.7-3.1-0.2-5c0.5-1.9,1.4-4.6,1.6-6.1c0.1-1.5-0.5-3.9-2.1-4.9
				c-1.6-1-3.4-1.1-4.8,0s-1.9,2.7-3.5,3.7c-1.6,1-4.2,2.1-4.2,2.3s0.9,0.8,2.9,0.5c2-0.4,3.2-1.1,4.8-0.5c1.6,0.6,2,1.3,1.4,2.8
				c-0.6,1.5-1.6,3.6-3.9,6.4c-2.3,2.8-3.4,5.1-2.5,8c0.9,2.9,3.4,5.9,5.1,7.2s7.1,3.8,8.7,4c0,0,0.7,2.3,0,3.7l-5.1,0.6
				c0,0-0.5,0.7,0,1.1c0.5,0.4,1.3,0.4,1.3,0.4s-1,0.5-1,1.1c0,0.1,0,0.1,0,0.2c-16.9-0.2-33.9-0.3-51-0.3c-9.2,0-18.4,0-27.6,0.1
				c-0.5-0.6-1-1.5-1.3-2.6c-0.7-2.9-1.6-5.5-1.9-7.1s-0.1-4.4,0.2-6.5c0.3-2.1,0.5-2-0.1-6.9c-0.6-4.8-0.7-7.7-0.7-7.7
				s5,1.3,6.9-1.1s3.4-6.4,4.6-8.4s3.8-3.6,4.9-7.2c1.2-3.7,8.2-11.7,13.6-14.3c0,0,7.7,1.5,11.1,1.5c3.4,0,5.3-0.3,6.9,0.1
				c0,0,0.4,0.8,2.1,0.8c1.7,0,3.5-0.6,3.7-1.4c0,0,2-1.3,2.3-2.9c0.3-1.6-1.2-2.4-2.4-3.7c-1.2-1.3-5-6.9-6.4-8.8
				c-1.4-1.9-2.2-2.3-2.2-2.3s0.3-2.2-1.6-4s-4.6-2.3-5.6-4.6c-1-2.4-1.6-2.9-3.8-1.9s-1.2,2.1-2,2.6c-0.8,0.5-3.4,1.9-5.7,2.8
				c0,0-1-0.8-3.5-0.9c-2.5-0.1-4.6,0.4-3.8,2.6c0,0-8.2,1.8-11.3,0.9c-3.1-0.9-8-2.4-10.3-2.6c-2.3-0.2-13.9,1.3-17.2,1.4
				c-3.3,0.1-12.1,0.6-17,1.3c-4.8,0.7-17.7,2-21,2.3c-3.4,0.3-5.6-1.1-11.6,0.6c-6,1.7-10.7,3.2-13.1,5.4c-2.5,2.3-3,7.1-2.5,10.9
				c0.5,3.8,0.5,10.7,0.4,15.1s-0.4,14.3-1,16s-1.8,2.8-1.4,4.5c0.4,1.8,1,8.1-0.1,12.9c-1.1,4.8-2.5,9.6-2.5,9.6s-1.3,1.6-1.1,2.3
				c0.2,0.7,1.6-0.3,1.6-0.3s0.6,1.4,0.3,2.9c0,0.1,0,0.2,0,0.3c-17.6,0.5-35.1,1.1-52.5,1.7c-5.2-3-8.8-4.1-13.1-5.9
				c-5.4-2.2-5.2-21.6-5.9-25.9c-1.6-9.3,3.3-10.6,7.7-15.6c1.5-1.7,3-6.1,4.3-10.9c3.3,3.8,8,6.2,13.4,6.2c6.2,0,11.6-3.2,14.8-8
				c0.9,0.2,1.9,0.3,2.9,0.3c9.8,0,17.7-7.9,17.7-17.7c0-7.2-4.3-13.4-10.5-16.1c0.5-2.2,0.7-4.4,0.7-6.7
				c0-16.9-13.2-30.6-29.9-31.6c-4.9-11.2-16.1-19.1-29.1-19.1c-15.3,0-28.1,10.8-31.1,25.3c-1.3-0.2-2.7-0.4-4.1-0.4
				c-12.3,0-22.5,8.6-25.1,20.1c-8.5,4.2-14.4,12.9-14.4,23.1c0,14.3,11.6,25.8,25.8,25.8c8.3,0,15.6-4,20.3-10.1
				c2,6,4.7,12.6,7.3,14.3c5.1,3.3,6.9,3.3,8.1,6.6c0.5,1.4-0.2,8.3-1.5,15.8l-3.9,0.2l-0.3-5.3l-6.3-6.1l-5.5,6.7l0.5,5.3l-8.4,0.5
				l-0.3-5.3l-6.3-6.1l-5.5,6.7l0.5,5.3l-8.7,0.5l-0.3-5.3l-6.3-6.1l-5.5,6.7l0.5,5.3l-9.1,0.5l-0.3-5.3l-6.3-6.1l-5.5,6.7l0.5,5.3
				l-5.1,0.3l0.6,10.2l5.4-0.3l1.2,12.7l-5.9,0.3l0.5,8.3l6.2-0.4l0.1,1.1c-9.6,0.6-19.2,1.3-28.7,2c0-0.1,0.1-0.2,0.1-0.2l-0.6,0.3
				c-0.3,0-0.6,0-0.9,0.1c-0.3-0.7-1.2-2.8-1.4-4.7c0,0,0.7,0.2,0.8-0.8c0.1-1,0.8-2.7,1.4-3.1c0.6-0.4,2.4-0.9,3.4-1.9
				c1-0.9,4.6-2.8,5.1-4.6c0.5-1.9,0.8-7.1,0.6-9.5c-0.3-2.4-0.6-2.9-1.4-3.9c-0.3-0.4-0.7-0.9-0.9-1.3c0,0,0.1,0,0.1,0
				c0.4,0,0.8-0.2,1.1-0.5c0.5-0.6,0.7-1.5,0.5-2.2c0.4,0,1.1,0,1.6,0.3c0,0,0.6-0.7-1.1-1.6c0-0.2,0-0.4-0.2-0.4
				c0-0.3,0-0.5,0.1-0.8c0-0.2,0-0.5-0.1-0.7c-0.1-0.1-0.2-0.1-0.2-0.1c-0.2-0.1-0.1-0.3-0.1-0.5c0-0.1-0.1-0.1-0.1-0.1
				c0,0-0.3,0.1-0.2,0.1c-0.1,0,0,0-0.1-0.1c-0.1-0.2,0.1-0.5,0-0.7c-0.2-0.3-0.4,0-0.6,0.3c0-0.2-0.1-0.5,0-0.8
				c0-0.2-0.3-0.2-0.4,0c0,0.1,0,0.2,0,0.3c0-0.1,0-0.3-0.1-0.4c0-0.2-0.3-0.2-0.4,0c0,0.1,0,0.2,0,0.3c0,0-0.1,0-0.1,0
				c0-0.1-0.1-0.3-0.2-0.4c-0.1-0.1-0.2-0.1-0.3,0c0,0.1-0.1,0.1-0.1,0.2c0,0,0,0,0,0c0,0-0.1-0.1-0.1-0.1c0,0,0,0,0,0
				c-0.1,0-0.1,0.1-0.1,0.1c0,0,0,0,0,0c0,0-0.1,0-0.1-0.1c-0.2-0.1-0.4,0-0.5,0.2c0,0.1,0,0.1-0.1,0.2c-0.1-0.1-0.2,0-0.2,0
				c0,0,0,0.1-0.1,0.1c-0.1,0-0.2,0-0.4,0c-0.3,0.1-0.5,0.4-0.6,0.7c-0.6,0.3-1.2,0.7-1.7,1.4c-1.4,1.9-1.9,4.4-2.5,5.9
				c-0.5,1.5-0.8,3.4-1.7,4.2c-1.1,1-7.1,1.5-9.3,1.4c-2.2-0.1-5.5,1.2-5.5,1.2s-2-1.3-2.6-2.7c-0.3-0.6-0.6-0.8-0.9-0.8
				c-0.1-0.3-0.4-0.6-0.7-0.6c-0.2,0-0.4,0.1-0.6,0.3c-0.3-0.2-0.7-0.3-1.2-0.1c-0.4,0.1-0.7,0.4-0.9,0.7c-0.2-0.3-0.6-0.3-0.7,0.1
				c0,0,0,0,0,0c-0.1,0-0.1,0-0.2,0c-0.3,0-0.7,0.1-0.9,0.4c-0.2,0.2-0.4,0.6-0.4,0.9c0,0.3,0.1,0.5,0.2,0.7
				c-0.3,0.2-0.5,0.5-0.7,0.9c-0.3,0.5-0.1,1.1,0.1,1.5c-0.2,0.1-0.3,0.3-0.3,0.5c0,0.3,0.1,0.5,0.3,0.7c-0.3,0.3-0.5,0.7-0.3,1.3
				c0.5,1.1,1.5,0.7,1.5,0.7s-0.1,0.8,0.5,1.1c0.3,0.2,0.8,0.1,1.1,0.1c0,0.1,0.1,0.2,0.1,0.3c0.1,0.1,0.2,0.2,0.4,0.3
				c0.2,0,0.4,0,0.6-0.1c0,0,0.1,0,0.1-0.1c0,0,0.1-0.1,0.1-0.1l2.7,1.2c0,0-0.1,1.1,1,1.5c0,0,0.4,1.5,1,1.5c0.6,0,1.1,0,1.1,0
				s0.9,0.8,1,1.5c0.1,0.7,1,0.6,1,0.6s0.1,2.1,2.4,3.1c2.3,1,1.9,2.2,1.9,2.2l-0.7,5.3c0,0-0.8,0.3-1.5,0.7
				c-10.5,0.8-20.9,1.7-31.2,2.6c-1-8.9-8.2-15.8-17.2-16.3c-2.8-6.5-9.3-11-16.9-11c-8.9,0-16.3,6.3-18,14.6
				c-0.8-0.1-1.6-0.3-2.4-0.3c-1.8,0-3.5,0.3-5,0.9l-2.7-17.6l14.4-22.3c1.7,0.2,3.4,0.3,5.1,0.3c20.9,0,37.9-17,37.9-37.9
				c0-9.6-3.6-18.8-10.1-25.8c-1.2-1.3-2.6-2.6-4-3.7c0.7-1.8,1.1-3.7,1.1-5.8c0-8.7-7.1-15.8-15.8-15.8c-0.5,0-1,0-1.5,0.1
				C452.7,19.4,436.3,4,416.5,4c-13.4,0-25.2,7-32,17.6c-1.5-0.2-2.9-0.4-4.5-0.4c-14.7,0-26.7,12-26.7,26.7c0,6,2,11.5,5.3,16
				c0,0-0.1,0.1-0.1,0.1c-6.5,7-10.1,16.2-10.1,25.8c0,20.9,17,37.9,37.9,37.9c2,0,3.9-0.2,5.8-0.4l14,21.6l-6.1,39.2
				c-6,0.7-11.9,1.3-17.9,2c-0.3-1.7-0.9-4.3-0.9-6.8c0-3.2,0.6-4.6,0.1-5.4c-0.5-0.9-4.7-3.3-5.5-5.4c0,0,0.5-8.2-1.8-11.9
				c0,0-0.4-2.6,0.4-5c0.8-2.5,0.2-3.4,0.2-3.4s3.2-1.1,1.7-4.9c0,0,1.1-1.4,0.3-2.9c-0.8-1.5-2.4-1.8-3.5-3.1
				c-0.3-0.3-0.3-0.1-0.2,0.3c0,0,0,0,0,0c-0.2,0-0.4,0.1-0.5,0.2c0,0.1,0,0.1,0,0.2c-0.1-0.1-0.1-0.2-0.2-0.2
				c-0.1-0.1-0.2-0.2-0.4-0.2c-0.2,0-0.3,0.2-0.2,0.3c0.1,0.3,0.2,0.6,0.3,0.8c0.1,0.2,0.2,0.9-0.1,0.6c0,0,0,0-0.1,0c0,0,0,0,0,0
				c0,0-0.1,0-0.1,0c-0.1,0-0.1,0.1-0.1,0.2c0.6,1.4,2,2.7,3.2,3.7c0.1,0.4,0.2,0.7,0.2,0.9c0.2,1.3,0,3.4-1.8,3s-7.4-2.7-9.9-2.4
				c-2.5,0.3-9.2,1.4-11.6,2.3c-2.4,0.8-12.6,2.5-14.9,2.1c-2.3-0.4-6.5-1.3-8.8-0.7c-2.3,0.6-7,0.8-9.6-2.9
				c-2.6-3.7-3.9-4.3-4.6-5.4c-0.8-1.1-1.7-3.5-1.7-3.5s1.8-1.5,1-3.3s-1.5-1.5-2-0.7c-0.5,0.8-1.2,2.1-1.8,2.5c0,0-3.7-0.2-4.4-0.6
				c-0.7-0.4-1.4-0.9-2.3,0.4c-0.9,1.3-1.7,3.7-3.3,4.8c-1.6,1-3.4,3.7-3.7,4.5c-0.3,0.8,0.1,1,0.1,1s-0.5,0.9,0.4,1.6
				c0.8,0.7,2.1,1.9,2.9,1.2c0,0,3.1-0.5,4.3-0.8c1.1-0.2,5.1-1,6.1-0.8c1,0.2,1.4,0,1.9,1.4c0.5,1.5,1.9,5.6,3.7,7.7
				c1.8,2.1,3.7,3.9,4.7,6.2c1,2.3,1.3,4.4,2.9,5.8s2.3,2.5,3.6,3.2c1.3,0.8,2,2,2.6,4c0.6,1.9,1.5,5.4,1.3,6.4
				c-0.3,1-0.7,2.2,0.1,3.6s1,4.9,1.2,6.3c0.1,0.5,0.1,1,0.2,1.5c-5.7,0.7-11.4,1.5-17.1,2.3c-0.7-6.4-6.1-11.3-12.7-11.3
				c-0.4,0-0.8,0-1.2,0.1c-1.3-15.8-14.5-28.3-30.7-28.3c-10.9,0-20.5,5.7-25.9,14.2c-1.2-0.2-2.4-0.3-3.6-0.3
				c-12,0-21.7,9.7-21.7,21.7c0,4.9,1.6,9.3,4.3,13c0,0-0.1,0.1-0.1,0.1c-1.5,1.6-2.8,3.4-4,5.3c-1.5,0.2-2.9,0.5-4.4,0.7
				c0.2-0.7,0.2-1.4,0-2c-0.6-1.6-3.4-8.1-5.2-13.4c-1.8-5.3-2.2-8.7-2.5-10.8c-0.3-2.1-1.5-3.7-1.5-3.7l-0.6-2.2
				c2.4,0.4,4.3-0.5,4.3-0.5c-8-8.3-3-17.9-5.2-28.5c-1.1-5.4-3.9-9-7.7-12.5c-3.8-3.5-6.5-4.1-6.5-4.1s-5.8-2.8-14.2-2.8
				c-8.4,0.1-15.7,3.7-21.2,6.3c-5.4,2.7-17.8,9-25.6,6.7c0,0-1.6-1.4-4.7-1.4s-8.3,1.1-11.8-0.4c-3.5-1.5-15.8-5.1-22-5.5
				c-6.2-0.4-13.3-0.6-16.4-0.5l-2.9-0.3c0,0-2.2-2-3.3-3.1c-1.1-1.1-2.6-3.1-2.4-0.5c0.3,3.3,1.2,4.3,1.2,4.3l-1.3,0.2
				c0,0-2.5-2.3-3.7-3.8c-1.2-1.5-2.8,1,1.3,6.2c0,0-0.6,1.4-0.9,3s-0.2,3.1-0.8,3.6c-0.6,0.6-0.9,1.6-0.4,3.4
				c0.5,1.8,0.6,3.1-0.1,4.8s-2.1,5.8-2.6,7.7c-0.6,1.9-0.8,3.6,0.5,5.4c1.3,1.8,0.7,2.8,2.7,2.9c1.9,0,2.6,0.6,3.6,0.4
				c1-0.2,2.7-2.2,2.8-3.4c0.1-1.3,4.2-4.6,5.4-5.5c1.2-0.9,3.1-0.9,3.7-2.1c0.6-1.2,2.1-4.5,4.7-2.9c2.6,1.5,13,8.2,15,10
				c2.1,1.8,5.4,5.1,6.2,7.8s1.1,8.3,4.6,10.4c3.4,2,8.1,4,8.1,4s2.2,4.1,3.5,6.8c1.3,2.8,4.6,9.8,5.5,13.1c1,3.3,2.3,4.8,2.9,6.4
				c0.6,1.6,1.7,4.9,2.4,7.3c0.3,1.2,0.6,3.2,0.7,5c-2.6,0.5-5.1,1-7.6,1.6c-1.1-1.4-2.6-2.3-4.3-2.6c0-0.9-0.1-1.8-0.4-2.7
				c-1.6-6.5-8-10.5-14.5-9.3c-3-3.8-8-5.8-13-4.6c-5.9,1.5-9.8,6.9-9.5,12.7c-0.5,0-1.1,0.1-1.6,0.2c-4.7,1.2-7.8,5.5-7.7,10.1
				c-2.3,2-3.7,4.9-3.6,8c-3.6,0.8-7.3,1.7-10.9,2.5c-0.8-0.9-1.6-1.6-2-2.1c-0.8-0.9-0.7-1.7-1.6-3.6c-0.9-1.9-1.3-3.2-1.1-5.3
				c0.1-1.9-0.1-2.3-0.6-3.6c0-0.2,0.2-0.4,0.2-0.6c0-0.1,0-0.1,0-0.2c0.2-0.1,0.3-0.2,0.5-0.3c0.2-0.3,0.2-0.6,0.2-0.9
				c0.1-0.3,0.3-0.5,0.4-0.7c0.2-0.2,0.4-0.4,0.6-0.6c0.1-0.1,0.1-0.2,0.1-0.3c0,0,0,0,0,0c0.2,0.1,0.5,0.1,0.7,0
				c0.1,0,0.2-0.2,0.3-0.2c0,0,0.2,0,0.3,0c0.4,0,0.8-0.1,1.2-0.3c0.1,0,0.2,0,0.3,0.1c0.5,0.1,0.8-0.4,0.8-0.9c0,0,0.1,0,0.1,0
				c0,0,0.1,0.1,0.2,0.1c0.2,0.1,0.4,0.1,0.6,0c0.4,0.2,1,0,1.4-0.3c0.4,0,0.8-0.4,1-0.9c0.1-0.3,0.2-0.6,0.3-0.8
				c0.1-0.2,0.2-0.3,0.3-0.5c0-0.1,0.1-0.3,0.1-0.4c0,0,0-0.1,0-0.1c0.2-0.1,0.2-0.3,0.3-0.5c0.2-0.2,0.4-0.5,0.5-0.8
				c0.2-0.1,0.3-0.2,0.4-0.3c0.4-0.4,0.2-0.8,0.3-1.2c0.1-0.4,0.3-0.6,0.2-1c0-0.3,0-0.6,0-1c0.3-0.2,0.4-0.5,0.6-0.8
				c0.1-0.3,0-0.6-0.2-0.7c0.3-0.1,0.6-0.4,0.7-0.8c0.4-0.2,0.6-0.6,0.8-1c0,0,0.1,0,0.1-0.1c0.1-0.1,0.3-0.2,0.4-0.4
				c0.3-0.4,0.1-0.8,0.1-1.2c0-0.5,0.4-0.8,0.5-1.2c0.1-0.5,0-0.9-0.1-1.4c0-0.1-0.1-0.2-0.1-0.2c0-0.3,0-0.5,0-0.8
				c0.2-0.3,0.1-0.7,0-1c0.3,0,0.5-0.2,0.6-0.5c0.3-1-0.1-2.3-0.6-3.2c0.1,0,0.2,0,0.3-0.1c0.3,0,0.5-0.1,0.8-0.2
				c0.4-0.2,0.6-0.3,0.8-0.6c0.5-0.2,0.8-0.7,0.8-1.3c0-0.1,0.1-0.1,0.1-0.2c0.2-0.6,0.3-1.4,0.4-2.1c0-0.4,0-0.7-0.1-1.1l0.1,0
				c0.9,0.1,2-0.9,2.8-1.5c0.9-0.6,2.2-0.6,3.2-0.7s1.4-0.7,1.8-1.2s0-1.3,0-1.3c0.7-0.5,0.3-1,0.3-2.2c0-1.2-1-1.7-2.4-2.3
				c-1.4-0.6-5.3-2.4-6.5-2.8c-1.2-0.4-2.8-2.1-4.5-1.8s-3.6,2.1-4.6,2.4s-4.7-0.4-7.1-1.1c-2.3-0.6-2.9-0.2-1.6,1.8
				c1.3,2,3.2,2.4,3.2,2.4l0.1,0.1c-0.4,0.1-0.7,0.5-0.7,0.9c-0.7,0.4-0.9,1.1-1.3,1.9c-0.2,0.1-0.3,0.3-0.4,0.5
				c-0.4,0.1-0.7,0.5-0.7,1c0.2,0,0.3,0,0.1,0.1c-0.1,0-0.3,0.1-0.4,0.1c-0.2,0.1-0.4,0.2-0.6,0.3c-0.4,0.4-0.3,0.9-0.6,1.3
				c-0.7-0.1-0.9,0.3-1.5,0.6c-0.2,0.1-0.4,0.1-0.6,0.2c-1-0.4-1.8-0.2-3-0.1c-1.4,0.1-2.3,0.6-3.5,1.2c-0.5,0.2-0.8,0.5-1.3,0.7
				c-0.3,0.1-0.6,0.1-0.9,0.3c-0.1,0.1-0.1,0.1-0.1,0.2c-0.4-0.1-0.6-0.2-1.1-0.1c-0.6,0.2-0.9,0.7-1.3,1.1c0,0-0.1,0.1-0.1,0.1
				c-0.2-0.1-0.5,0-0.9,0c-0.4,0.1-0.7,0-1.1,0c-0.1,0-0.2,0-0.4,0.1c-0.2-0.1-0.4-0.2-0.5-0.2c-0.5-0.1-0.9,0.1-1.4,0.2
				c-0.6,0-1.1-0.2-1.7,0c-1,0.3-1.9,0.6-2.8,1.2c-0.3,0-0.6-0.1-0.9-0.1c-0.5-0.1-0.9,0.2-1,0.6c-0.1-0.2-0.4-0.3-0.7-0.2
				c-0.4,0.2-1,0-1.5,0.1c-0.5,0.2-1,0.4-1.6,0.6c-0.1,0-0.3,0.1-0.4,0.1c-0.2,0-0.4,0-0.5,0c-0.2,0-0.3-0.1-0.5-0.1
				c-0.2,0-0.5,0.1-0.7,0.2c-0.6-0.1-1-0.1-1.6,0.3c-0.2,0.1-0.3,0.3-0.4,0.5c0,0-0.1,0-0.1,0c-0.1,0-0.2,0-0.3,0
				c-0.2,0-0.4,0.2-0.4,0.4c0-0.1-0.1-0.1-0.1-0.1c-0.6-0.1-1.5-0.3-1.8,0.3c-0.1,0-0.3,0.1-0.5,0.1c-0.3,0.1-0.7,0.2-1,0.3
				c-0.5,0-0.9-0.1-1.4-0.1c-0.5,0-1,0.2-1.5,0.4c-0.3,0.1-0.4,0.3-0.4,0.6c0,0,0,0,0,0c-0.2,0.1-0.6-0.2-0.8-0.3
				c-0.2,0-0.3,0-0.5,0c0,0-0.2,0.1-0.3,0.1c-0.2,0-0.5,0-0.7,0c-0.2,0.1-0.4,0.2-0.5,0.4c0,0-0.1,0-0.1,0c0,0,0,0-0.1-0.1
				c-0.2-0.1-0.4-0.2-0.6-0.2c-0.3,0-0.6,0.1-0.7,0.4c0,0,0,0-0.1,0.1C4.7,207,4.6,207,4.4,207c-0.3,0.1-0.6,0.2-0.9,0.3
				c-0.3,0.1-0.4,0.4-0.4,0.6c-0.1,0-0.3,0-0.4,0c-0.4,0-0.8,0.3-1.2,0.5c-0.4,0.2-0.7,0.3-1,0.6c-0.1,0.1-0.5,0.3-0.5,0.4
				c0,0,0,0,0,0c-0.3-0.2-0.8,0-0.8,0.4c0,0.1,0,0.2,0,0.3c-0.2,0.2-0.4,0.4-0.6,0.6c-0.4,0-0.8,0.4-1,0.9c-0.1,0.4-0.3,0.8-0.4,1.1
				c-0.4,0.3-0.6,0.6-0.6,1.1c-0.2,0.1-0.3,0.2-0.3,0.4c0,0.1,0,0.1-0.1,0.2c-0.1,0-0.1,0.1-0.2,0.1c-0.3,0.2-0.4,0.5-0.4,0.8
				c0,0-0.1,0.1-0.1,0.1c-0.2,0.1-0.4,0.2-0.4,0.4c0,0,0,0.1,0,0.1c0,0,0,0,0,0.1c0,0,0,0,0-0.1c0,0,0,0.1,0,0.1
				c0,0.1-0.1,0.2-0.1,0.2c-0.1,0.2-0.2,0.4-0.3,0.6c-0.2,0.6-0.1,1.2-0.1,1.8c-0.1,0.1-0.1,0.2-0.2,0.3c-0.2,0.4-0.1,0.7-0.1,1.1
				c0,0.2,0.2,0.3,0.3,0.4c-0.3,0.3-0.5,0.5-0.6,0.9c0,0.1,0,0.3,0,0.4c-0.2,1,0.3,2,0.6,3.1c0.2,0.9,0.3,1.7,0.4,2.6
				c0.1,0.7,0.7,1.3,0.7,2c0,0.2,0.1,0.4,0.3,0.5c-0.2,0.6,0,1.2,0.3,1.8c0.2,0.5,0.4,0.9,0.5,1.4c0.1,0.7,0.5,0.8,0.8,1.3
				c-0.1-0.2,0,0.7,0.1,0.9c0.3,0.6,1,0.9,1.4,1.4c0.4,0.5,0.7,1.2,1.1,1.7c0.1,0.1,0.2,0.2,0.3,0.3c-0.1,0.1-0.1,0.2-0.2,0.4
				c-0.1,0.3-0.2,0.6-0.4,0.9c-0.1,0.4-0.1,0.6-0.1,1c0,0.1,0,0.2-0.1,0.3c-0.1,0-0.3,0-0.4,0.1c-0.6,0.5-0.3,1.3,0.1,1.9
				c0.9,1.4,1.5,2.6,1.8,4.3c0,0.3,0.2,0.5,0.5,0.5c0,0.3,0.1,0.5,0.1,0.8c0.1,0.5,0.2,0.9,0.3,1.4c0.1,0.4,0.3,0.7,0.5,1
				c0.1,0.1,0.2,0.3,0.4,0.4c0.1,0.1,0.3,0.2,0.4,0.2c0.3,0.5,0.6,0.9,0.9,1.2c0.7,1,1.1,3.4,1.6,4c0.3,0.3,0.6,0.4,0.9,0.6
				C-239.6,322.6-394,415.2-394,518C-394,599.8,2094,599.8,2094,518z M1153.6,173.9l19.6-18.3l18,20.4L1153.6,173.9z M1613.3,210.2
				c1.4-7.5,8.5-12.4,16-11c7.5,1.4,12.4,8.5,11,16s-8.5,12.4-16,11C1616.9,224.8,1612,217.6,1613.3,210.2z M1519.4,199
				c1.1-6,6.9-10,13-8.9c6,1.1,10,6.9,8.9,13c-1.1,6-6.9,10-13,8.9C1522.3,210.8,1518.3,205,1519.4,199z M1455.8,132.9
				c2.2,4.1,5,7.7,8.4,10.6l-11.9,13.1l-7.2-16.6C1449,138.3,1452.6,135.9,1455.8,132.9z M1368,190.1c0,0,0.8,3.4,1.1,6.4
				c-1.6-0.2-3.1-0.4-4.7-0.6C1365.3,194.1,1366.5,192.2,1368,190.1z M1345,179.8c0,0,8.1,1.6,15.9,2.9c0,0-1,4.6-0.7,7.4
				c0.2,1.6,0,3.6-0.4,5.2c-6.2-0.8-12.5-1.6-18.7-2.3c-0.1-0.9-0.2-2-0.2-3C1341.1,185.9,1343.5,183.6,1345,179.8z M1334.3,179.5
				c0,0,1.4,1.4,0.8,2.8c-0.6,1.4-1.5,3.8-0.4,5.7c0.8,1.5,1.6,3,1.8,4.4c-3.2-0.4-6.4-0.8-9.7-1.2
				C1328,188.1,1330.2,184.2,1334.3,179.5z M1260.9,103.5c3,1,7.8,1.3,10.9,0.7l2.4,11l-17.1-1L1260.9,103.5z M1255.9,117.8
				l19.2,1.1l2.8,12.7l-26.3-1.5L1255.9,117.8z M1250.4,133.7l28.4,1.6l2.4,10.8l-34.4-2L1250.4,133.7z M1195,172.3l-17.9-20.3
				l20.2-18.8L1195,172.3z M1191.4,131.3l-17.9,16.6l-16.4-18.6L1191.4,131.3z M1153.1,132.8l16.5,18.8l-18.6,17.3L1153.1,132.8z
				 M1100.5,111.1l37.9,2.2l-1.4,23.8l-37.8-2.2L1100.5,111.1z M757.6,143.7c0.4-2.9,1.8-9.3,1.8-9.3l1.4,0.3c0,0-0.1,1.9,0.6,2
				c0.7,0.1,0.8-2.1,0.8-2.1s1.7,0.1,3-0.3c0,0,0.1,1.8,0.8,1.7c0.7-0.1,0.6-2.3,0.6-2.3s2.1-0.3,2.8-0.9c0,0,4.1,2,10.6,1.5
				s22-5.5,23.6-5.5s5.2,1.7,5.2,1.7l0.6,1.7c0,0-0.1,9.3-0.7,10.4c-0.5,1.1,0.4,1.8,0.3,3.6c-0.1,1.7-1.4,10.4-1.8,11.8
				c-0.4,1.4-0.5,4.7-0.5,4.7h2.1c0,0,0.1,0.6-0.2,1.5c0,0.1,0,0.2-0.1,0.3c-14,0.1-28,0.3-41.9,0.6c-0.3-0.9-1.6-2.3-2.6-2.6
				c0,0,0-1.2-1.4-1.9c0,0-1.6-2.7-2.9-5.9C758.4,151.4,757.2,146.5,757.6,143.7z M734.9,154.8c0.3-2.1,3.8-12.3,4.6-14.3
				c0.8-2,4.3-5.7,5-9.1c0,0,2.3,3.3,5.7,3.8c0,0-1.9,2.6-0.7,4.4c1.2,1.9,1.8,4.7,3,8.6c1.2,3.8,3.3,11.5,3.3,11.5
				s-1.2,1.9-0.6,2.4c0.6,0.5,2.3-1,2.3-1s0.8,1.3,1,2.2c0.1,0.6,0,1.3,0.2,2c-7.5,0.2-14.9,0.3-22.4,0.5c-0.1-0.1-0.2-0.2-0.2-0.2
				s-0.3-1.2-0.9-2.3C734.7,162.2,734.6,156.9,734.9,154.8z M656.4,101.9c-0.3-1-0.6-2.8-0.8-4.8c1.3-1.2,2.6-2.5,3.6-4
				c2.2,1.6,4.6,2.9,7.2,3.9c0,0.3-0.1,0.7-0.1,1c0,1.8,0.4,3.6,0.9,5.2c-2.7,4.7-5.2,9.2-6,10.6c-1.8,3.3-6.3,0.3-6.3,0.3
				S657.6,106,656.4,101.9z M630.9,107.2c-1.2-0.9-3.4-3.9-5.5-7.1c3.8,2.2,8.2,3.6,13,3.6c0.6,0,1.2-0.1,1.8-0.2
				c0.1,3,0.1,5.4,0.1,5.4S634.1,109.6,630.9,107.2z M633.9,147.4c-0.4,1.7-0.7,3.4-1.1,4.9l-0.3-4.8L633.9,147.4z M626.7,141
				c0.5,0,0.9,0.3,0.9,0.8s-0.3,0.9-0.8,0.9c-0.5,0-0.9-0.3-0.9-0.8C625.8,141.5,626.2,141.1,626.7,141z M621.3,148.2l1.2,12.7
				l-9.2,0.5l-0.7-12.7L621.3,148.2z M608.5,165.8c0.5,0,0.9,0.3,0.9,0.8c0,0.5-0.3,0.9-0.8,0.9c-0.5,0-0.9-0.3-0.9-0.8
				S608,165.8,608.5,165.8z M606.7,142.2c0.5,0,0.9,0.3,0.9,0.8c0,0.5-0.3,0.9-0.8,0.9s-0.9-0.3-0.9-0.8
				C605.9,142.6,606.2,142.2,606.7,142.2z M603.4,171.2c-3.3,0.2-6.6,0.4-9.9,0.6l-0.1-0.9l9.9-0.6L603.4,171.2z M601.4,149.3
				l1.2,12.7l-9.6,0.6l-0.7-12.7L601.4,149.3z M588.2,167c0.5,0,0.9,0.3,0.9,0.8c0,0.5-0.3,0.9-0.8,0.9s-0.9-0.3-0.9-0.8
				S587.7,167,588.2,167z M586.4,143.4c0.5,0,0.9,0.3,0.9,0.8c0,0.5-0.3,0.9-0.8,0.9s-0.9-0.3-0.9-0.8S585.9,143.4,586.4,143.4z
				 M583.1,172.4c-3.4,0.2-6.8,0.4-10.2,0.7l-0.1-1l10.2-0.6L583.1,172.4z M581,150.5l1.2,12.7l-9.9,0.6l-0.7-12.7L581,150.5z
				 M566.9,168.2c0.5,0,0.9,0.3,0.9,0.8c0,0.5-0.3,0.9-0.8,0.9s-0.9-0.3-0.9-0.8C566.1,168.6,566.4,168.2,566.9,168.2z M565.1,144.6
				c0.5,0,0.9,0.3,0.9,0.8s-0.3,0.9-0.8,0.9c-0.5,0-0.9-0.3-0.9-0.8C564.3,145,564.6,144.6,565.1,144.6z M523.6,173.5
				c0.3-1.6,3.2-2.8,3.2-2.8s1.8,0.2,2.3-0.5c0,0,0.7,2.5,1.1,3.6c0.3,0.7,0.5,1.5,0.2,2.3c-2.4,0.2-4.8,0.4-7.1,0.5
				C523.4,175.8,523.4,174.5,523.6,173.5z M416.5,112.8c2.8,3.7,6.2,6.8,10,9.1l-9.6,14.8l-9.8-15.2
				C410.6,119.3,413.8,116.3,416.5,112.8z M378.5,188.6c0.2-1.1,0.1-3.4,0.1-3.4s0.6,3.3,0.5,5.3c-0.4,0-0.8,0.1-1.2,0.1
				c0-0.2-0.1-0.3-0.1-0.6C377.7,189.7,378.3,189.8,378.5,188.6z M335.1,174.8c0,0,1.2-0.6,5.6,0.7c4.4,1.3,11.4,0.2,15.3-1.4
				s7.5-3.5,7.5-3.5l1.5,1c0,0-0.1,2.8,0.4,2.9c0.5,0.2,1-1.5,1-1.5l3.3,0.6c0,0,1.2,4.4,2,4.4c0.8,0,0.7-2.2,0.7-2.2s1,1.3,1.6,1.6
				c0,0,2.4,5.1,1.5,12.5c0,0.4-0.2,0.7-0.3,1c-13.3,1.6-26.5,3.2-39.5,4.9c0-0.5-0.1-1.1,0.2-1.5c0.4-0.6,0.2-1.2-0.4-2.9
				s-0.6-8.9-0.4-10.9C335.3,178.5,335.1,174.8,335.1,174.8z M208.8,214c0.1,0.3,0.1,0.5,0.1,0.8c-0.6,0.1-1.3,0.2-1.9,0.3
				c0.4-1.3-0.1-2.5-0.4-4c-0.4-1.8-1.4-6.9-1.4-6.9S208.3,212,208.8,214z M135.5,228.4c-0.1-0.6-0.2-1.2-0.5-2
				c-1.3-3.7-4.2-12.1-4.3-14c0,0,1.5,1.8,2.2,3c0.7,1.2,1.6,3.1,2.6,5.1c1,1.9,2.8,5.5,3.1,7.4C137.6,228,136.5,228.2,135.5,228.4z
				 M128.4,188.6c0,0,15.3-3.4,20-4.8c4.8-1.3,12.3-5.3,15.4-8c3.2-2.6,5.2-5.8,6.6-4.7c1.3,1.1,2.3,3.2,3.4,1.2
				c1.1-1.9,2.6-4.3,3.7-3.3s3.9,3.6,5.1,4.6c1.2,0.9,3.1,4.5,4.7,7.3s6.3,6.8,6.9,8.3c0.6,1.4,0.7,3,2,4.8c1.3,1.7,2.3,2.9,3.1,7.1
				c0.8,4.3,2.4,9.3,2.8,11.4c0.3,1.6,0.1,2.5-0.5,3.5c-19.9,3.5-39.4,7.1-58.5,10.8c0-0.3,0-0.6,0-1c-0.1-1.3-1-2.5-2-4.4
				c-1-1.9-5.3-9.5-5.4-11.3s-1.1-3.8-2-5.9C132.8,202.1,128.4,188.6,128.4,188.6z M6.8,247.6c-0.4-1.4-0.5-2.9-0.4-3.9
				c0.6-0.6,1.3-1.1,1.9-1.7c0.3-0.3,0.7-0.4,1-0.7c0.3-0.3,0.6-0.5,0.9-0.7c0.2-0.2,0.3-0.4,0.3-0.6c0.3-0.2,0.6-0.3,0.9-0.6
				c0.2-0.2,0.4-0.3,0.6-0.6c0,0,0,0,0-0.1c0,0,0.1,0,0.1-0.1c0.1-0.1,0.3-0.2,0.4-0.3c0.3-0.3,0.5-0.7,0.8-1
				c0.1-0.1,0.2-0.2,0.2-0.4c0.1,0,0.2-0.1,0.2-0.2c0.3-0.5,1-1,1.4-1.2c0.2-0.1,0.5-0.1,0.7-0.3c0.3-0.2,0.5-0.5,0.8-0.7
				c0,0,0,0,0,0c0,0,0,0,0,0.1c0.2,0.4,0.4,0.5,0.8,0.7c0.1,0.2,0.6,0.2,0.6,0.2l0,0c0.3,0,0.4-0.2,0.6-0.2c0.3-0.1,0.7,0.1,0.9,0.2
				c0.2,0.1,0.5,0.2,0.7,0.3c0.3,0,0.5-0.1,0.8-0.1c0.3,0,0.5-0.1,0.7-0.4c0.1,0,0.2,0,0.3,0.1c0.4,0.1,0.9,0.3,1.2,0.3
				c0.2,0,0.4-0.1,0.6-0.2c0.2,0,0.3,0,0.5,0c0.7,0,1.4-0.1,2.1-0.2c0.4,0,0.8,0.1,1.3,0c0.4-0.1,0.7-0.4,1.1-0.5
				c0.5-0.2,0.9-0.2,1.3-0.5c0,0,0.1,0,0.1,0.1c0.6,0.2,1.3,0.1,1.7-0.4c0.1-0.2,0.2-0.4,0.3-0.6c0,0,0.1,0,0.1-0.1
				c0.2,0,0.4,0.1,0.7,0c0.3,0,0.5-0.1,0.7-0.3c0.3,0.2,0.6,0.3,1.1,0.1c0.3-0.2,0.5-0.5,0.5-0.9c0,0,0,0,0.1-0.1
				c0.3,0.3,0.7,0.5,1.1,0.2c0.3-0.2,0.5-0.5,0.7-0.7c0,0,0,0,0,0c0.5-0.2,1-0.4,1.5-0.6c0.1,0.2,0.4,0.4,0.8,0.3
				c0.4-0.1,0.6-0.3,1-0.5c0.4-0.1,0.6-0.3,1-0.4c0.4-0.2,0.8-0.2,1.2-0.2c0,0,0,0,0,0c-0.1,0.1-0.2,0.3-0.2,0.4
				c-0.1,0.1-0.2,0.3-0.1,0.5l0.1,0.1c0,0,0,0.1,0.1,0.1c0.1,0.2,0.2,0.5,0.3,0.7c0.1,0.2,0.3,0.4,0.5,0.6c0,0,0.1,0.4,0.1,0.4
				c0.1,0.3,0.4,0.4,0.6,0.7c0.2,0.2,0.3,0.5,0.4,0.8c0.1,0.2,0.2,0.3,0.4,0.3c0,0.1,0,0.2,0.1,0.2c0.1,0.2,0.2,0.5,0.3,0.7
				c0.1,0.4,0.3,0.8,0.6,1.1c0.2,0.3,0.5,0.4,0.8,0.5c0.3,0.7,0.7,1.4,1,2.1c1.5,3.1,2.2,5.7,2.5,7.5c-13.2,3.2-26.2,6.4-39,9.7
				c-0.1-0.1-0.2-0.2-0.2-0.2c0.5-0.3,1.3-0.7,1.3-0.7s-0.8-0.7-1.3-1.3c-0.5-0.6-1.5-0.9-2.3-1.7C8.1,252,7.5,250.1,6.8,247.6z"/>
		</g>
	</g>
</g>
</svg>
